<?xml version="1.0" encoding="UTF-8" standalone="no"?>
<!DOCTYPE svg PUBLIC "-//W3C//DTD SVG 1.1//EN"
 "http://www.w3.org/Graphics/SVG/1.1/DTD/svg11.dtd">
<!-- Generated by graphviz version 2.47.0 (20210316.0004)
 -->
<!-- Title: dependencies Pages: 1 -->
<svg width="558pt" height="211pt"
 viewBox="0.00 0.00 558.00 211.00" xmlns="http://www.w3.org/2000/svg" xmlns:xlink="http://www.w3.org/1999/xlink">
<g id="graph0" class="graph" transform="scale(1 1) rotate(0) translate(4 207)">
<title>dependencies</title>
<polygon fill="white" stroke="transparent" points="-4,4 -4,-207 554,-207 554,4 -4,4"/>
<text text-anchor="start" x="254.01" y="-42.4" font-family="Times-12" font-weight="bold" font-size="14.00">Legend</text>
<polygon fill="#ffffb3" stroke="transparent" points="41,-10 41,-30 61,-30 61,-10 41,-10"/>
<text text-anchor="start" x="64.63" y="-15.4" font-family="Times-12" font-size="14.00"> &#160;Declarations</text>
<polygon fill="#8dd3c7" stroke="transparent" points="154,-10 154,-30 174,-30 174,-10 154,-10"/>
<text text-anchor="start" x="177.73" y="-15.4" font-family="Times-12" font-size="14.00"> &#160;Module</text>
<polygon fill="#80b1d3" stroke="transparent" points="240,-10 240,-30 260,-30 260,-10 240,-10"/>
<text text-anchor="start" x="263.78" y="-15.4" font-family="Times-12" font-size="14.00"> &#160;Bootstrap</text>
<polygon fill="#fdb462" stroke="transparent" points="337,-10 337,-30 357,-30 357,-10 337,-10"/>
<text text-anchor="start" x="360.67" y="-15.4" font-family="Times-12" font-size="14.00"> &#160;Providers</text>
<polygon fill="#fb8072" stroke="transparent" points="433,-10 433,-30 453,-30 453,-10 433,-10"/>
<text text-anchor="start" x="456.73" y="-15.4" font-family="Times-12" font-size="14.00"> &#160;Exports</text>
<g id="clust1" class="cluster">
<title>cluster_AppModule</title>
<polygon fill="none" stroke="black" stroke-dasharray="1,5" points="8,-70 8,-195 542,-195 542,-70 8,-70"/>
</g>
<g id="clust3" class="cluster">
<title>cluster_AppModule_imports</title>
<polygon fill="none" stroke="black" points="16,-78 16,-130 534,-130 534,-78 16,-78"/>
</g>
<!-- PaisesModule -->
<g id="node1" class="node">
<title>PaisesModule</title>
<polygon fill="#8dd3c7" stroke="black" points="526.04,-122 523.04,-126 502.04,-126 499.04,-122 431.96,-122 431.96,-86 526.04,-86 526.04,-122"/>
<text text-anchor="middle" x="479" y="-99.8" font-family="Times,serif" font-size="14.00">PaisesModule</text>
</g>
<!-- AppModule -->
<g id="node5" class="node">
<title>AppModule</title>
<polygon fill="#8dd3c7" stroke="black" points="340.66,-187 337.66,-191 316.66,-191 313.66,-187 257.34,-187 257.34,-151 340.66,-151 340.66,-187"/>
<text text-anchor="middle" x="299" y="-164.8" font-family="Times,serif" font-size="14.00">AppModule</text>
</g>
<!-- PaisesModule&#45;&gt;AppModule -->
<g id="edge1" class="edge">
<title>PaisesModule&#45;&gt;AppModule</title>
<path fill="none" stroke="black" d="M479,-122.11C479,-141.34 479,-169 479,-169 479,-169 350.75,-169 350.75,-169"/>
<polygon fill="black" stroke="black" points="350.75,-165.5 340.75,-169 350.75,-172.5 350.75,-165.5"/>
</g>
<!-- PersonasModule -->
<g id="node2" class="node">
<title>PersonasModule</title>
<polygon fill="#8dd3c7" stroke="black" points="413.81,-122 410.81,-126 389.81,-126 386.81,-122 304.19,-122 304.19,-86 413.81,-86 413.81,-122"/>
<text text-anchor="middle" x="359" y="-99.8" font-family="Times,serif" font-size="14.00">PersonasModule</text>
</g>
<!-- PersonasModule&#45;&gt;AppModule -->
<g id="edge2" class="edge">
<title>PersonasModule&#45;&gt;AppModule</title>
<path fill="none" stroke="black" d="M322.59,-122.11C322.59,-122.11 322.59,-140.99 322.59,-140.99"/>
<polygon fill="black" stroke="black" points="319.09,-140.99 322.59,-150.99 326.09,-140.99 319.09,-140.99"/>
</g>
<!-- SexosModule -->
<g id="node3" class="node">
<title>SexosModule</title>
<polygon fill="#8dd3c7" stroke="black" points="286.49,-122 283.49,-126 262.49,-126 259.49,-122 193.51,-122 193.51,-86 286.49,-86 286.49,-122"/>
<text text-anchor="middle" x="240" y="-99.8" font-family="Times,serif" font-size="14.00">SexosModule</text>
</g>
<!-- SexosModule&#45;&gt;AppModule -->
<g id="edge3" class="edge">
<title>SexosModule&#45;&gt;AppModule</title>
<path fill="none" stroke="black" d="M271.83,-122.11C271.83,-122.11 271.83,-140.99 271.83,-140.99"/>
<polygon fill="black" stroke="black" points="268.33,-140.99 271.83,-150.99 275.33,-140.99 268.33,-140.99"/>
</g>
<!-- TipoDocumentoModule -->
<g id="node4" class="node">
<title>TipoDocumentoModule</title>
<polygon fill="#8dd3c7" stroke="black" points="175.81,-122 172.81,-126 151.81,-126 148.81,-122 24.19,-122 24.19,-86 175.81,-86 175.81,-122"/>
<text text-anchor="middle" x="100" y="-99.8" font-family="Times,serif" font-size="14.00">TipoDocumentoModule</text>
</g>
<!-- TipoDocumentoModule&#45;&gt;AppModule -->
<g id="edge4" class="edge">
<title>TipoDocumentoModule&#45;&gt;AppModule</title>
<path fill="none" stroke="black" d="M100,-122.11C100,-141.34 100,-169 100,-169 100,-169 247.28,-169 247.28,-169"/>
<polygon fill="black" stroke="black" points="247.28,-172.5 257.28,-169 247.28,-165.5 247.28,-172.5"/>
</g>
</g>
</svg>
