<?xml version="1.0" encoding="UTF-8" standalone="no"?>
<!DOCTYPE svg PUBLIC "-//W3C//DTD SVG 1.1//EN"
 "http://www.w3.org/Graphics/SVG/1.1/DTD/svg11.dtd">
<!-- Generated by graphviz version 2.47.0 (20210316.0004)
 -->
<!-- Title: dependencies Pages: 1 -->
<svg width="1215pt" height="298pt"
 viewBox="0.00 0.00 1215.00 298.00" xmlns="http://www.w3.org/2000/svg" xmlns:xlink="http://www.w3.org/1999/xlink">
<g id="graph0" class="graph" transform="scale(1 1) rotate(0) translate(4 294)">
<title>dependencies</title>
<polygon fill="white" stroke="transparent" points="-4,4 -4,-294 1211,-294 1211,4 -4,4"/>
<text text-anchor="start" x="582.51" y="-42.4" font-family="Times-12" font-weight="bold" font-size="14.00">Legend</text>
<polygon fill="#ffffb3" stroke="transparent" points="369.5,-10 369.5,-30 389.5,-30 389.5,-10 369.5,-10"/>
<text text-anchor="start" x="393.13" y="-15.4" font-family="Times-12" font-size="14.00"> &#160;Declarations</text>
<polygon fill="#8dd3c7" stroke="transparent" points="482.5,-10 482.5,-30 502.5,-30 502.5,-10 482.5,-10"/>
<text text-anchor="start" x="506.23" y="-15.4" font-family="Times-12" font-size="14.00"> &#160;Module</text>
<polygon fill="#80b1d3" stroke="transparent" points="568.5,-10 568.5,-30 588.5,-30 588.5,-10 568.5,-10"/>
<text text-anchor="start" x="592.28" y="-15.4" font-family="Times-12" font-size="14.00"> &#160;Bootstrap</text>
<polygon fill="#fdb462" stroke="transparent" points="665.5,-10 665.5,-30 685.5,-30 685.5,-10 665.5,-10"/>
<text text-anchor="start" x="689.17" y="-15.4" font-family="Times-12" font-size="14.00"> &#160;Providers</text>
<polygon fill="#fb8072" stroke="transparent" points="761.5,-10 761.5,-30 781.5,-30 781.5,-10 761.5,-10"/>
<text text-anchor="start" x="785.23" y="-15.4" font-family="Times-12" font-size="14.00"> &#160;Exports</text>
<g id="clust1" class="cluster">
<title>cluster_AppModule</title>
<polygon fill="none" stroke="black" stroke-dasharray="1,5" points="58,-146 58,-274 591,-274 591,-146 58,-146"/>
</g>
<g id="clust3" class="cluster">
<title>cluster_AppModule_imports</title>
<polygon fill="none" stroke="black" points="66,-154 66,-206 583,-206 583,-154 66,-154"/>
</g>
<g id="clust7" class="cluster">
<title>cluster_PaisesModule</title>
<polygon fill="none" stroke="black" stroke-dasharray="1,5" points="8,-70 8,-138 168,-138 168,-70 8,-70"/>
</g>
<g id="clust12" class="cluster">
<title>cluster_PaisesModule_providers</title>
<polygon fill="none" stroke="black" points="16,-78 16,-130 160,-130 160,-78 16,-78"/>
</g>
<g id="clust13" class="cluster">
<title>cluster_PersonasModule</title>
<polygon fill="none" stroke="black" stroke-dasharray="1,5" points="599,-214 599,-282 915,-282 915,-214 599,-214"/>
</g>
<g id="clust16" class="cluster">
<title>cluster_PersonasModule_exports</title>
<polygon fill="none" stroke="black" points="779,-222 779,-274 907,-274 907,-222 779,-222"/>
</g>
<g id="clust18" class="cluster">
<title>cluster_PersonasModule_providers</title>
<polygon fill="none" stroke="black" points="607,-222 607,-274 771,-274 771,-222 607,-222"/>
</g>
<g id="clust19" class="cluster">
<title>cluster_SexosModule</title>
<polygon fill="none" stroke="black" stroke-dasharray="1,5" points="923,-214 923,-282 1199,-282 1199,-214 923,-214"/>
</g>
<g id="clust22" class="cluster">
<title>cluster_SexosModule_exports</title>
<polygon fill="none" stroke="black" points="1081,-222 1081,-274 1191,-274 1191,-222 1081,-222"/>
</g>
<g id="clust24" class="cluster">
<title>cluster_SexosModule_providers</title>
<polygon fill="none" stroke="black" points="931,-222 931,-274 1073,-274 1073,-222 931,-222"/>
</g>
<g id="clust25" class="cluster">
<title>cluster_TipoDocumentoModule</title>
<polygon fill="none" stroke="black" stroke-dasharray="1,5" points="176,-70 176,-138 414,-138 414,-70 176,-70"/>
</g>
<g id="clust30" class="cluster">
<title>cluster_TipoDocumentoModule_providers</title>
<polygon fill="none" stroke="black" points="184,-78 184,-130 406,-130 406,-78 184,-78"/>
</g>
<!-- PaisesModule -->
<g id="node1" class="node">
<title>PaisesModule</title>
<polygon fill="#8dd3c7" stroke="black" points="168.04,-198 165.04,-202 144.04,-202 141.04,-198 73.96,-198 73.96,-162 168.04,-162 168.04,-198"/>
<text text-anchor="middle" x="121" y="-175.8" font-family="Times,serif" font-size="14.00">PaisesModule</text>
</g>
<!-- AppModule -->
<g id="node5" class="node">
<title>AppModule</title>
<polygon fill="#8dd3c7" stroke="black" points="377.66,-266 374.66,-270 353.66,-270 350.66,-266 294.34,-266 294.34,-230 377.66,-230 377.66,-266"/>
<text text-anchor="middle" x="336" y="-243.8" font-family="Times,serif" font-size="14.00">AppModule</text>
</g>
<!-- PaisesModule&#45;&gt;AppModule -->
<g id="edge1" class="edge">
<title>PaisesModule&#45;&gt;AppModule</title>
<path fill="none" stroke="black" d="M121,-198.22C121,-218.37 121,-248 121,-248 121,-248 284.29,-248 284.29,-248"/>
<polygon fill="black" stroke="black" points="284.29,-251.5 294.29,-248 284.29,-244.5 284.29,-251.5"/>
</g>
<!-- PersonasModule -->
<g id="node2" class="node">
<title>PersonasModule</title>
<polygon fill="#8dd3c7" stroke="black" points="464.81,-198 461.81,-202 440.81,-202 437.81,-198 355.19,-198 355.19,-162 464.81,-162 464.81,-198"/>
<text text-anchor="middle" x="410" y="-175.8" font-family="Times,serif" font-size="14.00">PersonasModule</text>
</g>
<!-- PersonasModule&#45;&gt;AppModule -->
<g id="edge2" class="edge">
<title>PersonasModule&#45;&gt;AppModule</title>
<path fill="none" stroke="black" d="M366.59,-198.22C366.59,-198.22 366.59,-219.73 366.59,-219.73"/>
<polygon fill="black" stroke="black" points="363.09,-219.73 366.59,-229.73 370.09,-219.73 363.09,-219.73"/>
</g>
<!-- PersonasService  -->
<g id="node7" class="node">
<title>PersonasService </title>
<polygon fill="#fb8072" stroke="black" points="898.74,-266 787.26,-266 787.26,-230 898.74,-230 898.74,-266"/>
<text text-anchor="middle" x="843" y="-243.8" font-family="Times,serif" font-size="14.00">PersonasService </text>
</g>
<!-- PersonasModule&#45;&gt;PersonasService  -->
<g id="edge6" class="edge">
<title>PersonasModule&#45;&gt;PersonasService </title>
<path fill="none" stroke="black" stroke-dasharray="5,2" d="M406.77,-198.19C406.77,-206.28 406.77,-214 406.77,-214 406.77,-214 843,-214 843,-214 843,-214 843,-219.81 843,-219.81"/>
<polygon fill="black" stroke="black" points="839.5,-219.81 843,-229.81 846.5,-219.81 839.5,-219.81"/>
</g>
<!-- SexosModule -->
<g id="node3" class="node">
<title>SexosModule</title>
<polygon fill="#8dd3c7" stroke="black" points="575.49,-198 572.49,-202 551.49,-202 548.49,-198 482.51,-198 482.51,-162 575.49,-162 575.49,-198"/>
<text text-anchor="middle" x="529" y="-175.8" font-family="Times,serif" font-size="14.00">SexosModule</text>
</g>
<!-- SexosModule&#45;&gt;AppModule -->
<g id="edge3" class="edge">
<title>SexosModule&#45;&gt;AppModule</title>
<path fill="none" stroke="black" d="M529,-198.27C529,-216.56 529,-242 529,-242 529,-242 387.88,-242 387.88,-242"/>
<polygon fill="black" stroke="black" points="387.88,-238.5 377.88,-242 387.88,-245.5 387.88,-238.5"/>
</g>
<!-- SexosService  -->
<g id="node9" class="node">
<title>SexosService </title>
<polygon fill="#fb8072" stroke="black" points="1183.42,-266 1088.58,-266 1088.58,-230 1183.42,-230 1183.42,-266"/>
<text text-anchor="middle" x="1136" y="-243.8" font-family="Times,serif" font-size="14.00">SexosService </text>
</g>
<!-- SexosModule&#45;&gt;SexosService  -->
<g id="edge8" class="edge">
<title>SexosModule&#45;&gt;SexosService </title>
<path fill="none" stroke="black" stroke-dasharray="5,2" d="M575.62,-174C717.76,-174 1136,-174 1136,-174 1136,-174 1136,-219.71 1136,-219.71"/>
<polygon fill="black" stroke="black" points="1132.5,-219.71 1136,-229.71 1139.5,-219.71 1132.5,-219.71"/>
</g>
<!-- TipoDocumentoModule -->
<g id="node4" class="node">
<title>TipoDocumentoModule</title>
<polygon fill="#8dd3c7" stroke="black" points="337.81,-198 334.81,-202 313.81,-202 310.81,-198 186.19,-198 186.19,-162 337.81,-162 337.81,-198"/>
<text text-anchor="middle" x="262" y="-175.8" font-family="Times,serif" font-size="14.00">TipoDocumentoModule</text>
</g>
<!-- TipoDocumentoModule&#45;&gt;AppModule -->
<g id="edge4" class="edge">
<title>TipoDocumentoModule&#45;&gt;AppModule</title>
<path fill="none" stroke="black" d="M315.91,-198.22C315.91,-198.22 315.91,-219.73 315.91,-219.73"/>
<polygon fill="black" stroke="black" points="312.41,-219.73 315.91,-229.73 319.41,-219.73 312.41,-219.73"/>
</g>
<!-- PaisesService -->
<g id="node6" class="node">
<title>PaisesService</title>
<ellipse fill="#fdb462" stroke="black" cx="88" cy="-104" rx="64.26" ry="18"/>
<text text-anchor="middle" x="88" y="-99.8" font-family="Times,serif" font-size="14.00">PaisesService</text>
</g>
<!-- PaisesService&#45;&gt;PaisesModule -->
<g id="edge5" class="edge">
<title>PaisesService&#45;&gt;PaisesModule</title>
<path fill="none" stroke="black" d="M112.93,-120.87C112.93,-120.87 112.93,-151.85 112.93,-151.85"/>
<polygon fill="black" stroke="black" points="109.43,-151.85 112.93,-161.85 116.43,-151.85 109.43,-151.85"/>
</g>
<!-- PersonasService -->
<g id="node8" class="node">
<title>PersonasService</title>
<ellipse fill="#fdb462" stroke="black" cx="689" cy="-248" rx="74.13" ry="18"/>
<text text-anchor="middle" x="689" y="-243.8" font-family="Times,serif" font-size="14.00">PersonasService</text>
</g>
<!-- PersonasService&#45;&gt;PersonasModule -->
<g id="edge7" class="edge">
<title>PersonasService&#45;&gt;PersonasModule</title>
<path fill="none" stroke="black" d="M618.78,-254C543.82,-254 435.71,-254 435.71,-254 435.71,-254 435.71,-208.29 435.71,-208.29"/>
<polygon fill="black" stroke="black" points="439.21,-208.29 435.71,-198.29 432.21,-208.29 439.21,-208.29"/>
</g>
<!-- SexosService -->
<g id="node10" class="node">
<title>SexosService</title>
<ellipse fill="#fdb462" stroke="black" cx="1002" cy="-248" rx="63.12" ry="18"/>
<text text-anchor="middle" x="1002" y="-243.8" font-family="Times,serif" font-size="14.00">SexosService</text>
</g>
<!-- SexosService&#45;&gt;SexosModule -->
<g id="edge9" class="edge">
<title>SexosService&#45;&gt;SexosModule</title>
<path fill="none" stroke="black" d="M1002,-229.73C1002,-211.44 1002,-186 1002,-186 1002,-186 585.65,-186 585.65,-186"/>
<polygon fill="black" stroke="black" points="585.65,-182.5 575.65,-186 585.65,-189.5 585.65,-182.5"/>
</g>
<!-- TipoDocumentoService -->
<g id="node11" class="node">
<title>TipoDocumentoService</title>
<ellipse fill="#fdb462" stroke="black" cx="295" cy="-104" rx="103.07" ry="18"/>
<text text-anchor="middle" x="295" y="-99.8" font-family="Times,serif" font-size="14.00">TipoDocumentoService</text>
</g>
<!-- TipoDocumentoService&#45;&gt;TipoDocumentoModule -->
<g id="edge10" class="edge">
<title>TipoDocumentoService&#45;&gt;TipoDocumentoModule</title>
<path fill="none" stroke="black" d="M264.68,-121.25C264.68,-121.25 264.68,-151.76 264.68,-151.76"/>
<polygon fill="black" stroke="black" points="261.18,-151.76 264.68,-161.76 268.18,-151.76 261.18,-151.76"/>
</g>
</g>
</svg>
